<svg xmlns="http://www.w3.org/2000/svg" width="256" height="256" xml:space="preserve"><g style="stroke:none;stroke-width:0;stroke-dasharray:none;stroke-linecap:butt;stroke-linejoin:miter;stroke-miterlimit:10;fill:none;fill-rule:nonzero;opacity:1"><path d="M9.601 11.655a5.003 5.003 0 0 1-4.997-4.997 5.003 5.003 0 0 1 4.997-4.997 5.003 5.003 0 0 1 4.997 4.997 5.002 5.002 0 0 1-4.997 4.997zm0-7.993a3 3 0 0 0-2.997 2.997 3 3 0 0 0 2.997 2.997 3 3 0 0 0 2.997-2.997 3 3 0 0 0-2.997-2.997zM80.141 79.495a5.002 5.002 0 0 1-4.997-4.997c0-2.755 2.241-4.996 4.997-4.996s4.997 2.241 4.997 4.996a5.002 5.002 0 0 1-4.997 4.997zm0-7.993a3 3 0 0 0-2.997 2.996c0 1.652 1.345 2.997 2.997 2.997s2.997-1.345 2.997-2.997a3 3 0 0 0-2.997-2.996zM2.65 37.08a.99.99 0 0 1-1-1c0-.06 0-.13.02-.19.01-.07.03-.13.05-.19.03-.06.06-.12.09-.17a.988.988 0 0 1 .45-.37c.25-.1.53-.1.77 0 .12.05.23.12.32.21.19.19.3.45.3.71 0 .26-.11.52-.3.71-.18.19-.44.29-.7.29zM59.06 81.91c-.13 0-.26-.021-.38-.07a1 1 0 0 1-.62-.92c0-.14.021-.26.08-.39.05-.12.12-.23.21-.32.09-.101.2-.17.33-.22.36-.15.811-.061 1.09.22.09.09.16.2.21.32a.985.985 0 0 1-.21 1.09.99.99 0 0 1-.71.29zM43.84 2.37c-.27 0-.53-.1-.71-.29a.99.99 0 0 1-.29-.71c0-.26.1-.52.29-.7.37-.38 1.04-.38 1.41 0 .19.18.29.44.29.7 0 .27-.1.52-.29.71-.18.19-.44.29-.7.29zM2.283 77.378H1a1 1 0 1 1 0-2h1.283a1 1 0 1 1 0 2zM8.711 77.378H7.428a1 1 0 1 1 0-2h1.283a1 1 0 1 1 0 2zM4.855 74.805a1 1 0 0 1-1-1v-1.282a1 1 0 1 1 2 0v1.282a1 1 0 0 1-1 1zM4.855 81.233a1 1 0 0 1-1-1V78.95a1 1 0 1 1 2 0v1.283a1 1 0 0 1-1 1zM72.776 12.288h-1.282a1 1 0 1 1 0-2h1.282a1 1 0 1 1 0 2zM79.205 12.288h-1.283a1 1 0 1 1 0-2h1.283a1 1 0 1 1 0 2zM75.35 9.715a1 1 0 0 1-1-1V7.432a1 1 0 1 1 2 0v1.283a1 1 0 0 1-1 1zM75.35 16.143a1 1 0 0 1-1-1V13.86a1 1 0 1 1 2 0v1.283a1 1 0 0 1-1 1zM16.42 58.312a1 1 0 0 1-.856-.481 27.681 27.681 0 0 1-2.93-21.959 27.464 27.464 0 0 1 8.799-13.524 27.779 27.779 0 0 1 12.355-5.917 27.665 27.665 0 0 1 13.002.557 27.3 27.3 0 0 1 11.237 6.376 1 1 0 0 1-1.369 1.458 25.328 25.328 0 0 0-10.421-5.913 25.326 25.326 0 0 0-12.059-.517 25.782 25.782 0 0 0-11.463 5.489 25.473 25.473 0 0 0-8.16 12.544 25.677 25.677 0 0 0 2.718 20.368.999.999 0 0 1-.853 1.519zM39.127 71.099a27.53 27.53 0 0 1-7.608-1.07 27.683 27.683 0 0 1-6.436-2.772 1 1 0 1 1 1.018-1.721 25.646 25.646 0 0 0 5.971 2.571 25.7 25.7 0 0 0 20.223-2.631 1 1 0 1 1 1.025 1.717 27.697 27.697 0 0 1-14.193 3.906z" style="stroke:none;stroke-width:1;stroke-dasharray:none;stroke-linecap:butt;stroke-linejoin:miter;stroke-miterlimit:10;fill:#da3be4;fill-rule:nonzero;opacity:1" transform="matrix(2.81 0 0 2.81 1.407 1.407)"/><path d="M10.223 65.293c-2.968 0-5.132-.735-6.071-2.434-1.422-2.571.436-6.571 5.372-11.566a1.001 1.001 0 0 1 1.423 1.406c-4.066 4.114-5.952 7.551-5.044 9.193 1.7 3.072 13.542 1.379 30.417-6.785.497-.237 1.096-.032 1.336.465s.032 1.095-.465 1.336c-9.837 4.759-20.379 8.385-26.968 8.385zM23.721 50.125c-.408 0-.792-.252-.94-.658-3.267-8.976 1.378-18.936 10.353-22.202a1 1 0 0 1 .683 1.88c-7.938 2.889-12.046 11.699-9.157 19.639a1 1 0 0 1-.939 1.341zM57.911 53.755a.998.998 0 0 1-.865-.499l-6.32-10.922a1 1 0 0 1 .069-1.106c3.005-3.95 7.242-7.57 12.254-10.47 9.702-5.614 20.216-7.225 26.162-4.007a1 1 0 0 1 .524.905c-.174 6.758-6.81 15.071-16.512 20.685-5.012 2.899-10.262 4.77-15.184 5.407a1.391 1.391 0 0 1-.128.007zm-5.117-11.84 5.646 9.756c4.472-.681 9.222-2.423 13.782-5.062 8.671-5.018 14.917-12.477 15.476-18.38-5.397-2.459-14.977-.758-23.646 4.259-4.562 2.639-8.44 5.889-11.258 9.427z" style="stroke:none;stroke-width:1;stroke-dasharray:none;stroke-linecap:butt;stroke-linejoin:miter;stroke-miterlimit:10;fill:#da3be4;fill-rule:nonzero;opacity:1" transform="matrix(2.81 0 0 2.81 1.407 1.407)"/><path d="M57.933 63.189a1 1 0 0 1-1-.998l-.021-9.435a1 1 0 0 1 .872-.994c3.439-.444 7.188-1.58 10.84-3.281a.999.999 0 0 1 1.332 1.322l-3.961 8.663a.997.997 0 0 1-.408.449l-7.152 4.139a.999.999 0 0 1-.502.135zm.98-9.568.016 6.837 5.38-3.113 2.748-6.011c-2.752 1.092-5.519 1.87-8.144 2.287zm6.172 4.43h.01-.01zM51.59 42.833a.99.99 0 0 1-.499-.134l-8.169-4.72a1 1 0 0 1-.001-1.731l7.153-4.139c.18-.104.388-.149.594-.13l9.483.883a1 1 0 0 1 .482 1.813c-3.294 2.318-6.146 5.003-8.247 7.764a.999.999 0 0 1-.796.394zm-6.17-5.721 5.92 3.42c1.67-2.068 3.723-4.079 6.04-5.921l-6.58-.612-5.38 3.113zM71.74 43.331a5.869 5.869 0 0 1-5.085-2.925 5.827 5.827 0 0 1-.591-4.449 5.824 5.824 0 0 1 2.729-3.563 5.829 5.829 0 0 1 4.449-.59 5.824 5.824 0 0 1 3.563 2.729 5.82 5.82 0 0 1 .591 4.448 5.822 5.822 0 0 1-2.729 3.563 5.824 5.824 0 0 1-2.927.787zm-1.945-9.206a3.84 3.84 0 0 0-1.798 2.348 3.837 3.837 0 0 0 .389 2.931 3.868 3.868 0 0 0 5.279 1.409 3.836 3.836 0 0 0 1.798-2.348 3.833 3.833 0 0 0-.389-2.931 3.836 3.836 0 0 0-2.348-1.798 3.827 3.827 0 0 0-2.931.389zM47.002 54.402c-.959 0-1.821-.184-2.52-.562a1 1 0 0 1-.524-.905c.057-2.22 2.063-4.795 5.113-6.559 1.524-.883 3.13-1.453 4.641-1.648a1 1 0 0 1 .993.491l1.821 3.147a1 1 0 0 1-.069 1.106c-.922 1.213-2.216 2.321-3.742 3.203-1.957 1.134-3.991 1.727-5.713 1.727zm-.918-2.092c1.284.267 3.406-.079 5.63-1.365 1.061-.613 2.011-1.372 2.733-2.178l-1.125-1.943c-1.058.225-2.189.671-3.249 1.284-2.225 1.287-3.586 2.954-3.989 4.202zM89 56.35a.986.986 0 0 1-.71-.29c-.09-.1-.16-.21-.21-.33-.061-.12-.08-.25-.08-.38s.02-.26.08-.38c.05-.12.12-.229.21-.32.37-.38 1.05-.38 1.42 0 .09.091.16.2.21.32a.995.995 0 0 1-.21 1.09.99.99 0 0 1-.71.29zM26.01 89.63c-.26 0-.51-.11-.71-.3-.18-.19-.29-.44-.29-.7a1.013 1.013 0 0 1 .45-.84c.05-.03.11-.061.17-.09.06-.021.12-.04.19-.051a.96.96 0 0 1 .9.271c.19.18.29.439.29.71 0 .13-.02.26-.07.38s-.13.23-.22.32c-.09.1-.2.17-.32.22-.13.05-.25.08-.39.08z" style="stroke:none;stroke-width:1;stroke-dasharray:none;stroke-linecap:butt;stroke-linejoin:miter;stroke-miterlimit:10;fill:#da3be4;fill-rule:nonzero;opacity:1" transform="matrix(2.81 0 0 2.81 1.407 1.407)"/></g></svg>